<?xml version="1.0" encoding="UTF-8" standalone="no"?>
<!-- Created with Inkscape (http://www.inkscape.org/) -->

<svg
   width="2000mm"
   height="1500mm"
   viewBox="0 0 2000 1500"
   version="1.1"
   id="svg1"
   sodipodi:docname="drawing.svg"
   inkscape:version="1.4 (86a8ad7, 2024-10-11)"
   inkscape:export-filename="foodIO.png"
   inkscape:export-xdpi="2.54"
   inkscape:export-ydpi="2.54"
   xmlns:inkscape="http://www.inkscape.org/namespaces/inkscape"
   xmlns:sodipodi="http://sodipodi.sourceforge.net/DTD/sodipodi-0.dtd"
   xmlns="http://www.w3.org/2000/svg"
   xmlns:svg="http://www.w3.org/2000/svg">
  <sodipodi:namedview
     id="namedview1"
     pagecolor="#ffffff"
     bordercolor="#000000"
     borderopacity="0.25"
     inkscape:showpageshadow="2"
     inkscape:pageopacity="0.0"
     inkscape:pagecheckerboard="0"
     inkscape:deskcolor="#d1d1d1"
     inkscape:document-units="mm"
     inkscape:zoom="0.12330844"
     inkscape:cx="3584.5073"
     inkscape:cy="2299.1127"
     inkscape:window-width="1920"
     inkscape:window-height="1001"
     inkscape:window-x="-9"
     inkscape:window-y="-9"
     inkscape:window-maximized="1"
     inkscape:current-layer="layer1"
     showgrid="false">
    <inkscape:grid
       id="grid1"
       units="mm"
       originx="0"
       originy="0"
       spacingx="0.99999998"
       spacingy="1"
       empcolor="#0099e5"
       empopacity="0.30196078"
       color="#0099e5"
       opacity="0.14901961"
       empspacing="5"
       enabled="true"
       visible="false" />
  </sodipodi:namedview>
  <defs
     id="defs1">
    <inkscape:path-effect
       effect="simplify"
       id="path-effect38"
       is_visible="true"
       lpeversion="1.3"
       threshold="23.753445"
       steps="1"
       smooth_angles="360"
       helper_size="10"
       simplify_individual_paths="false"
       simplify_just_coalesce="false" />
    <inkscape:path-effect
       effect="simplify"
       id="path-effect37"
       is_visible="true"
       lpeversion="1.3"
       threshold="64.55204"
       steps="34.923077"
       smooth_angles="360"
       helper_size="10"
       simplify_individual_paths="false"
       simplify_just_coalesce="false" />
    <inkscape:path-effect
       effect="join_type"
       id="path-effect35"
       is_visible="true"
       lpeversion="1"
       linecap_type="butt"
       line_width="0.177507"
       linejoin_type="extrp_arc"
       miter_limit="100"
       attempt_force_join="true" />
    <filter
       id="selectable_hidder_filter"
       width="1"
       height="1"
       x="0"
       y="0"
       style="color-interpolation-filters:sRGB;"
       inkscape:label="LPE boolean visibility">
      <feComposite
         id="boolops_hidder_primitive"
         result="composite1"
         operator="arithmetic"
         in2="SourceGraphic"
         in="BackgroundImage" />
    </filter>
    <inkscape:path-effect
       effect="bool_op"
       operand-path=""
       id="path-effect34"
       is_visible="true"
       lpeversion="1"
       operation="union"
       swap-operands="false"
       filltype-this="from-curve"
       filter=""
       filltype-operand="from-curve" />
    <inkscape:path-effect
       effect="bend_path"
       id="path-effect33"
       is_visible="true"
       lpeversion="1"
       bendpath="m 1247.1724,874.68964 h 82.6896"
       prop_scale="0.96"
       scale_y_rel="false"
       vertical="false"
       hide_knot="false" />
    <inkscape:path-effect
       effect="interpolate"
       id="path-effect32"
       is_visible="true"
       lpeversion="1"
       trajectory="M 0,0 V 0"
       equidistant_spacing="true"
       steps="40" />
    <inkscape:path-effect
       effect="sketch"
       id="path-effect31"
       is_visible="true"
       lpeversion="1"
       nbiter_approxstrokes="2.0555556"
       parallel_offset="5;1"
       strokelength="153.82479"
       strokelength_rdm="0.3;1"
       strokeoverlap="0.38888889"
       strokeoverlap_rdm="0.3;1"
       ends_tolerance="0.1;1"
       tremble_size="5;1"
       tremble_frequency="0.01"
       nbtangents="5"
       tgt_places_rdmness="1;1"
       tgtlength="33.333333"
       tgtlength_rdm="0.3;1"
       tgtscale="84.615385" />
    <inkscape:path-effect
       effect="rough_hatches"
       id="path-effect30"
       is_visible="true"
       lpeversion="1.2"
       direction="1288.5172,869.68964 , 20.6724,0"
       dist_rdm="75;1"
       growth="0"
       do_bend="true"
       bender="1288.5172,874.68964 , 5,0"
       bottom_edge_variation="6.372412;1"
       top_edge_variation="6.372412;1"
       bottom_tgt_variation="0;1"
       top_tgt_variation="0;1"
       scale_bf="1"
       scale_bb="1"
       scale_tf="1"
       scale_tb="1"
       top_smth_variation="0;1"
       bottom_smth_variation="0;1"
       fat_output="true"
       stroke_width_top="1"
       stroke_width_bottom="1"
       front_thickness="1"
       back_thickness="0.25" />
    <inkscape:path-effect
       effect="skeletal"
       id="path-effect29"
       is_visible="true"
       lpeversion="1"
       pattern="M 0,0 H 1"
       copytype="single_stretched"
       prop_scale="1.02"
       scale_y_rel="false"
       spacing="0.3"
       normal_offset="0"
       tang_offset="0"
       prop_units="false"
       vertical_pattern="false"
       hide_knot="false"
       fuse_tolerance="0" />
    <inkscape:path-effect
       effect="simplify"
       id="path-effect13"
       is_visible="true"
       lpeversion="1.3"
       threshold="55.522843"
       steps="26.237458"
       smooth_angles="360"
       helper_size="12.240803"
       simplify_individual_paths="false"
       simplify_just_coalesce="false" />
    <inkscape:path-effect
       effect="fillet_chamfer"
       id="path-effect12"
       is_visible="true"
       lpeversion="1"
       nodesatellites_param="F,0,0,1,0,13.49375,0,1 @ F,0,0,1,0,13.49375,0,1 @ F,0,0,1,0,13.49375,0,1 @ F,0,0,1,0,13.49375,0,1 @ F,0,0,1,0,13.49375,0,1 @ F,0,0,1,0,13.49375,0,1 @ F,0,0,1,0,13.49375,0,1 @ F,0,0,1,0,13.49375,0,1 @ F,0,0,1,0,13.49375,0,1 @ F,0,0,1,0,13.49375,0,1 @ F,0,0,1,0,13.49375,0,1 @ F,0,0,1,0,13.49375,0,1 @ F,0,0,1,0,13.49375,0,1 @ F,0,0,1,0,13.49375,0,1 @ F,0,0,1,0,13.49375,0,1 @ F,0,0,1,0,13.49375,0,1 @ F,0,0,1,0,13.49375,0,1 @ F,0,0,1,0,13.49375,0,1 @ F,0,0,1,0,13.49375,0,1 @ F,0,0,1,0,13.49375,0,1 @ F,0,0,1,0,13.49375,0,1 @ F,0,0,1,0,13.49375,0,1 @ F,0,0,1,0,13.49375,0,1 @ F,0,0,1,0,13.49375,0,1 @ F,0,0,1,0,13.49375,0,1 @ F,0,0,1,0,13.49375,0,1"
       radius="52"
       unit="px"
       method="auto"
       mode="F"
       chamfer_steps="1"
       flexible="true"
       use_knot_distance="true"
       apply_no_radius="true"
       apply_with_radius="true"
       only_selected="false"
       hide_knots="false" />
    <inkscape:path-effect
       effect="powerstroke"
       message=""
       id="path-effect10"
       is_visible="true"
       lpeversion="1.3"
       scale_width="1"
       interpolator_type="CentripetalCatmullRom"
       interpolator_beta="0.2"
       start_linecap_type="zerowidth"
       end_linecap_type="zerowidth"
       offset_points="13,0.088753499"
       linejoin_type="round"
       miter_limit="4"
       not_jump="false"
       sort_points="true" />
    <inkscape:path-effect
       effect="taper_stroke"
       start_shape="center | center"
       end_shape="center | center"
       id="path-effect8"
       is_visible="true"
       lpeversion="1"
       stroke_width="2.38"
       subpath="1"
       attach_start="0.2"
       end_offset="0.2"
       start_smoothing="2.3"
       end_smoothing="2.4"
       jointype="round"
       miter_limit="100" />
    <inkscape:path-effect
       effect="fill_between_many"
       id="path-effect7"
       is_visible="true"
       lpeversion="1.2"
       linkedpaths=""
       method="d"
       join="true"
       close="false"
       autoreverse="false" />
    <inkscape:path-effect
       effect="perspective-envelope"
       up_left_point="714.51919,715.9924"
       up_right_point="1313.1704,715.9924"
       down_left_point="714.51919,843.26139"
       down_right_point="1313.1704,843.26139"
       id="path-effect6"
       is_visible="true"
       lpeversion="1"
       deform_type="perspective"
       horizontal_mirror="false"
       vertical_mirror="false"
       overflow_perspective="false" />
    <inkscape:path-effect
       effect="simplify"
       id="path-effect5"
       is_visible="true"
       lpeversion="1.3"
       threshold="68.230602"
       steps="10.013378"
       smooth_angles="360"
       helper_size="3.2107023"
       simplify_individual_paths="false"
       simplify_just_coalesce="false" />
    <inkscape:path-effect
       effect="powerstroke"
       message=""
       id="path-effect3"
       is_visible="true"
       lpeversion="1.3"
       scale_width="8.2352941"
       interpolator_type="CubicBezierSmooth"
       interpolator_beta="0.45490196"
       start_linecap_type="round"
       end_linecap_type="zerowidth"
       offset_points="0.2,0.088753499 | 22,0.088753499 | 43.8,0.088753499"
       linejoin_type="round"
       miter_limit="5.5"
       not_jump="false"
       sort_points="true" />
    <inkscape:path-effect
       effect="vonkoch"
       id="path-effect2"
       is_visible="true"
       lpeversion="1"
       ref_path="m 714.1701,779.48469 h 599.0003"
       generator="m 714.1701,843.26139 h 199.66677 m 199.66673,0 h 199.6668"
       similar_only="false"
       nbgenerations="0"
       drawall="true"
       maxComplexity="1000" />
    <inkscape:path-effect
       effect="fill_between_many"
       method="bsplinespiro"
       autoreverse="false"
       close="false"
       join="false"
       linkedpaths="#path2,0,1"
       id="path-effect4" />
    <inkscape:path-effect
       effect="fill_between_many"
       method="bsplinespiro"
       autoreverse="false"
       close="false"
       join="false"
       linkedpaths="#path2,0,1"
       id="path-effect9" />
    <inkscape:path-effect
       effect="fill_between_many"
       method="bsplinespiro"
       autoreverse="false"
       close="false"
       join="false"
       linkedpaths="#path9,0,1"
       id="path-effect11" />
    <inkscape:path-effect
       effect="simplify"
       id="path-effect13-4"
       is_visible="true"
       lpeversion="1.3"
       threshold="55.522843"
       steps="26.237458"
       smooth_angles="360"
       helper_size="12.240803"
       simplify_individual_paths="false"
       simplify_just_coalesce="false" />
    <inkscape:path-effect
       effect="simplify"
       id="path-effect13-5"
       is_visible="true"
       lpeversion="1.3"
       threshold="55.522843"
       steps="26.237458"
       smooth_angles="360"
       helper_size="12.240803"
       simplify_individual_paths="false"
       simplify_just_coalesce="false" />
    <inkscape:path-effect
       effect="simplify"
       id="path-effect13-1"
       is_visible="true"
       lpeversion="1.3"
       threshold="55.522843"
       steps="26.237458"
       smooth_angles="360"
       helper_size="12.240803"
       simplify_individual_paths="false"
       simplify_just_coalesce="false" />
    <inkscape:path-effect
       effect="simplify"
       id="path-effect13-14"
       is_visible="true"
       lpeversion="1.3"
       threshold="55.522843"
       steps="26.237458"
       smooth_angles="360"
       helper_size="12.240803"
       simplify_individual_paths="false"
       simplify_just_coalesce="false" />
    <inkscape:path-effect
       effect="simplify"
       id="path-effect13-16"
       is_visible="true"
       lpeversion="1.3"
       threshold="55.522843"
       steps="26.237458"
       smooth_angles="360"
       helper_size="12.240803"
       simplify_individual_paths="false"
       simplify_just_coalesce="false" />
    <inkscape:path-effect
       effect="simplify"
       id="path-effect13-18"
       is_visible="true"
       lpeversion="1.3"
       threshold="55.522843"
       steps="26.237458"
       smooth_angles="360"
       helper_size="12.240803"
       simplify_individual_paths="false"
       simplify_just_coalesce="false" />
    <inkscape:path-effect
       effect="simplify"
       id="path-effect13-43"
       is_visible="true"
       lpeversion="1.3"
       threshold="55.522843"
       steps="26.237458"
       smooth_angles="360"
       helper_size="12.240803"
       simplify_individual_paths="false"
       simplify_just_coalesce="false" />
    <inkscape:path-effect
       effect="simplify"
       id="path-effect13-11"
       is_visible="true"
       lpeversion="1.3"
       threshold="55.522843"
       steps="26.237458"
       smooth_angles="360"
       helper_size="12.240803"
       simplify_individual_paths="false"
       simplify_just_coalesce="false" />
    <inkscape:path-effect
       effect="fill_between_many"
       method="bsplinespiro"
       autoreverse="false"
       close="false"
       join="false"
       linkedpaths="#path27,0,1"
       id="path-effect36" />
  </defs>
  <g
     inkscape:label="Layer 1"
     inkscape:groupmode="layer"
     id="layer1">
    <path
       style="fill:#76401b;fill-opacity:1;stroke-width:0.193904"
       id="path1"
       sodipodi:type="arc"
       sodipodi:cx="983.83173"
       sodipodi:cy="553.88556"
       sodipodi:rx="348.51178"
       sodipodi:ry="329.93619"
       sodipodi:start="0"
       sodipodi:end="3.1557475"
       sodipodi:arc-type="slice"
       d="M 1332.3435,553.88556 A 348.51178,329.93619 0 0 1 1156.6616,840.39386 348.51178,329.93619 0 0 1 806.73549,838.04925 348.51178,329.93619 0 0 1 635.35486,549.21552 l 348.47687,4.67004 z" />
    <rect
       style="fill:#814d2e;fill-opacity:1;stroke-width:0.171776"
       id="rect1"
       width="310.04727"
       height="42.538799"
       x="826.47687"
       y="843.63965"
       ry="21.2694" />
    <path
       style="fill:#e3dbdb;fill-rule:nonzero;stroke:#e3dbdb;stroke-width:2.38"
       d="m 714.51919,841.1157 c 19.19633,-15.13541 30.13393,-41.97161 53.42422,-50.31466 20.99228,-7.51986 31.32154,-30.80903 54.64425,-35.52218 32.17424,-6.5019 52.57754,-43.64733 87.70261,-39.39687 27.69408,3.35125 55.19376,6.40071 83.48364,6.54398 27.53209,0.13943 55.07439,20.8879 81.03589,12.17203 19.0273,-6.38789 33.9613,-19.55335 57.9189,-14.06904 29.7967,6.82096 53.6667,26.65609 77.8087,45.35049 17.4922,13.54511 41.7947,12.93913 57.8124,30.63315 14.4931,16.00987 33.0028,28.36913 44.8206,46.74879"
       id="path2"
       inkscape:linked-fill="path9"
       transform="matrix(1.0864422,0,0,1.0983285,-110.65851,-372.29247)"
       inkscape:path-effect="#path-effect5"
       inkscape:original-d="m 714.51919,841.1157 c 2.86094,-1.43047 10.01329,-1.43047 8.58282,-4.29141 -1.43047,-2.86094 -10.84459,6.55317 -8.58282,4.29141 9.7151,-9.71508 22.47048,-16.03336 32.18556,-25.74843 8.89373,-8.89373 16.05862,-19.58859 25.74845,-27.89415 7.51412,-6.44067 15.28101,-10.02691 23.60274,-15.01992 3.51282,-2.10772 3.85556,-6.00128 6.4371,-8.58282 0.50575,-0.50575 1.63994,0.50575 2.14569,0 3.22347,-3.22347 -4.60917,-6.11933 -4.29141,-6.43712 2.10378,-2.10376 11.95557,1.02147 15.01995,0 7.73237,-2.57744 16.63848,-4.40426 23.60271,-8.5828 8.09117,-4.8547 17.65729,-10.16524 25.74846,-15.01994 8.2061,-4.92366 14.39418,-14.0961 23.60273,-17.16561 4.69234,-1.56411 28.62287,-0.95139 34.33125,0 4.46199,0.74366 8.43852,3.40426 12.87423,4.29141 2.80538,0.56107 5.73937,-0.31594 8.58279,0 17.13733,1.90415 31.83311,2.14569 49.3512,2.14569 4.72114,0 10.35696,-0.77716 15.01996,0 5.8787,0.97978 17.87,2.6535 23.6027,4.29141 9.8059,2.8017 -2.1636,2.14272 10.7285,4.29141 8.052,1.34202 23.9534,1.63851 30.0398,2.14569 5.548,0.46233 11.5973,0 17.1657,0 2.8609,0 9.8622,2.55892 8.5828,0 -0.7044,-1.40878 -17.6089,-12.65256 -12.8742,-15.01992 6.4714,-3.23567 32.5619,0.50443 40.7683,2.14572 5.4077,1.08151 11.9778,-1.72929 17.1657,0 0.9595,0.31985 1.241,1.69333 2.1457,2.14569 2.6376,1.31884 5.8447,1.05047 8.5828,2.14572 7.4196,2.96785 1.4923,1.11921 8.5828,6.4371 6.8145,5.11085 17.1494,8.57199 23.6027,12.87422 9.5365,6.35765 21.7674,15.33028 30.0399,23.60274 0.5057,0.50575 -0.5058,1.63994 0,2.14569 0.5057,0.50575 1.4304,0 2.1457,0 1.4304,0.71525 3.1605,1.01481 4.2914,2.14572 2.6134,2.61342 1.0051,4.79393 4.2914,6.4371 7.4384,3.71922 20.4557,-3.71922 27.8941,0 0.6398,0.31986 -0.4654,1.60266 0,2.14569 3.9497,4.60791 9.0311,8.17711 12.8742,12.87423 2.641,3.22779 3.7673,7.52465 6.4372,10.72851 1.0238,1.22865 3.1605,1.01484 4.2914,2.14572 2.9761,2.97617 5.3369,7.48268 8.5828,10.72851 4.9516,4.95165 13.4289,3.25501 17.1656,10.72851 1.462,2.92394 1.5781,8.01515 4.2914,10.72851 0.5058,0.50575 1.64,-0.50572 2.1457,0 2.293,2.29296 -3.0502,4.29141 2.1457,4.29141" />
    <path
       style="fill:#aa4400;fill-rule:nonzero;stroke:#800000;stroke-width:0.177507"
       d="m 862.17109,751.7771 c -2.26498,2.28789 0.91432,5.67844 3.7317,5.11718 2.72794,-0.54344 6.01149,-1.60769 8.32801,0.30009 2.29848,1.89292 1.29316,5.17211 0.55038,7.67244 -1.16829,3.93269 4.14867,8.05511 7.47374,5.34477 2.4749,-2.01734 2.50131,-6.21726 5.9365,-7.25672 3.40995,-1.03183 5.83832,2.29875 8.4048,3.94546 2.86408,1.83765 6.17665,0.1221 9.17157,-0.68239 4.02595,-1.08144 8.12381,1.25604 12.18156,-0.19695 4.03796,-1.4459 6.30821,-5.86142 10.89907,-6.402 1.3997,-0.16482 5.85416,3.01279 4.70284,0.40719 -2.22196,-5.02862 -5.59049,-9.80135 -6.34718,-15.26791 -0.65429,-4.72685 -0.52842,-9.50972 -1.60309,-14.21267 -1.09817,-4.80577 -0.90076,-10.43202 -3.96868,-14.27214 -2.491,-3.11798 -6.97669,-2.63636 -10.45374,-1.87102 -6.77382,1.491 -12.86628,5.39068 -20.08638,5.41577 -12.45861,0.0433 -24.10306,5.65899 -36.37677,7.11289 -2.51226,0.29759 -7.59851,-0.72167 -7.40219,2.85827 0.17071,3.11309 3.54351,4.23325 5.80299,5.61895 3.2387,1.98623 7.03986,3.96103 8.52696,7.54368 1.20321,2.8987 -2.7701,6.48787 -0.19445,8.7066 0.19996,0.17224 0.49049,0.0957 0.72236,0.11851 z"
       id="path9"
       inkscape:linked-fill="path11"
       sodipodi:nodetypes="csssssssssssssssssssssssssc"
       inkscape:path-effect="#path-effect13"
       inkscape:original-d="m 862.17109,751.7771 c -4.81296,9.11328 2.49017,1.33617 11.13016,5.65616 1.27945,0.63973 3.27991,-1.01148 4.29141,0 0.71523,0.71524 -1.43047,1.43047 -2.14571,2.14571 -0.59256,0.59256 -0.086,10.55656 0,10.72851 0.31985,0.63974 1.43047,0 2.14571,0 2.1457,0 4.51792,0.95959 6.4371,0 1.27945,-0.63971 -1.0115,-3.2799 0,-4.29141 0.50576,-0.50575 1.63997,0.50576 2.1457,0 0.50575,-0.50575 -0.50573,-1.63994 0,-2.14569 3.94684,-3.94684 10.76071,3.58691 12.87422,4.29141 2.64486,0.88162 3.96603,-1.6515 6.4371,-2.14572 2.29548,-0.45907 10.25285,1.3107 12.87423,0 1.12488,-0.56242 8.09088,-7.31631 10.72851,-6.4371 3.50803,1.16933 8.58282,5.60658 8.58282,4.29141 0,-0.71525 -1.74895,0.5951 -2.14569,0 -2.54019,-3.81026 -7.01963,-15.40335 -8.58282,-19.31133 -0.7969,-1.99223 0.42079,-4.33308 0,-6.43712 -1.14654,-5.73273 -3.54454,-20.71018 -6.4371,-23.60274 -0.75684,-0.75682 -9.10556,-0.54097 -10.72854,0 -3.654,1.21801 -7.02505,3.23329 -10.72851,4.29141 -5.38604,1.53887 -15.5067,0.95565 -21.45702,2.14572 -8.58123,1.71624 -17.16722,4.72085 -25.74845,6.4371 -1.40269,0.28053 -3.01197,-0.63971 -4.29141,0 -5.23277,2.61638 11.73176,11.73175 12.87423,12.87422 0.50575,0.50576 -0.70805,2.24685 0,2.1457 5.15464,-0.73637 -3.26258,10.79423 1.74406,9.36376 z"
       transform="matrix(1.0864422,0,0,1.0983285,-135.39451,-340.25055)" />
    <path
       style="fill:#aa4400;fill-rule:nonzero;stroke:#800000;stroke-width:0.177507"
       d="m 862.17109,751.7771 c -2.26498,2.28789 0.91432,5.67844 3.7317,5.11718 2.72794,-0.54344 6.01149,-1.60769 8.32801,0.30009 2.29848,1.89292 1.29316,5.17211 0.55038,7.67244 -1.16829,3.93269 4.14867,8.05511 7.47374,5.34477 2.4749,-2.01734 2.50131,-6.21726 5.9365,-7.25672 3.40995,-1.03183 5.83832,2.29875 8.4048,3.94546 2.86408,1.83765 6.17665,0.1221 9.17157,-0.68239 4.02595,-1.08144 8.12381,1.25604 12.18156,-0.19695 4.03796,-1.4459 6.30821,-5.86142 10.89907,-6.402 1.3997,-0.16482 5.85416,3.01279 4.70284,0.40719 -2.22196,-5.02862 -5.59049,-9.80135 -6.34718,-15.26791 -0.65429,-4.72685 -0.52842,-9.50972 -1.60309,-14.21267 -1.09817,-4.80577 -0.90076,-10.43202 -3.96868,-14.27214 -2.491,-3.11798 -6.97669,-2.63636 -10.45374,-1.87102 -6.77382,1.491 -12.86628,5.39068 -20.08638,5.41577 -12.45861,0.0433 -24.10306,5.65899 -36.37677,7.11289 -2.51226,0.29759 -7.59851,-0.72167 -7.40219,2.85827 0.17071,3.11309 3.54351,4.23325 5.80299,5.61895 3.2387,1.98623 7.03986,3.96103 8.52696,7.54368 1.20321,2.8987 -2.7701,6.48787 -0.19445,8.7066 0.19996,0.17224 0.49049,0.0957 0.72236,0.11851 z"
       id="path9-1"
       inkscape:linked-fill="path11"
       sodipodi:nodetypes="csssssssssssssssssssssssssc"
       inkscape:path-effect="#path-effect13-5"
       inkscape:original-d="m 862.17109,751.7771 c -4.81296,9.11328 2.49017,1.33617 11.13016,5.65616 1.27945,0.63973 3.27991,-1.01148 4.29141,0 0.71523,0.71524 -1.43047,1.43047 -2.14571,2.14571 -0.59256,0.59256 -0.086,10.55656 0,10.72851 0.31985,0.63974 1.43047,0 2.14571,0 2.1457,0 4.51792,0.95959 6.4371,0 1.27945,-0.63971 -1.0115,-3.2799 0,-4.29141 0.50576,-0.50575 1.63997,0.50576 2.1457,0 0.50575,-0.50575 -0.50573,-1.63994 0,-2.14569 3.94684,-3.94684 10.76071,3.58691 12.87422,4.29141 2.64486,0.88162 3.96603,-1.6515 6.4371,-2.14572 2.29548,-0.45907 10.25285,1.3107 12.87423,0 1.12488,-0.56242 8.09088,-7.31631 10.72851,-6.4371 3.50803,1.16933 8.58282,5.60658 8.58282,4.29141 0,-0.71525 -1.74895,0.5951 -2.14569,0 -2.54019,-3.81026 -7.01963,-15.40335 -8.58282,-19.31133 -0.7969,-1.99223 0.42079,-4.33308 0,-6.43712 -1.14654,-5.73273 -3.54454,-20.71018 -6.4371,-23.60274 -0.75684,-0.75682 -9.10556,-0.54097 -10.72854,0 -3.654,1.21801 -7.02505,3.23329 -10.72851,4.29141 -5.38604,1.53887 -15.5067,0.95565 -21.45702,2.14572 -8.58123,1.71624 -17.16722,4.72085 -25.74845,6.4371 -1.40269,0.28053 -3.01197,-0.63971 -4.29141,0 -5.23277,2.61638 11.73176,11.73175 12.87423,12.87422 0.50575,0.50576 -0.70805,2.24685 0,2.1457 5.15464,-0.73637 -3.26258,10.79423 1.74406,9.36376 z"
       transform="matrix(1.0864422,0,0,1.0983285,46.165062,-344.08191)" />
    <path
       style="fill:#aa4400;fill-rule:nonzero;stroke:#800000;stroke-width:0.177507"
       d="m 862.17109,751.7771 c -2.26498,2.28789 0.91432,5.67844 3.7317,5.11718 2.72794,-0.54344 6.01149,-1.60769 8.32801,0.30009 2.29848,1.89292 1.29316,5.17211 0.55038,7.67244 -1.16829,3.93269 4.14867,8.05511 7.47374,5.34477 2.4749,-2.01734 2.50131,-6.21726 5.9365,-7.25672 3.40995,-1.03183 5.83832,2.29875 8.4048,3.94546 2.86408,1.83765 6.17665,0.1221 9.17157,-0.68239 4.02595,-1.08144 8.12381,1.25604 12.18156,-0.19695 4.03796,-1.4459 6.30821,-5.86142 10.89907,-6.402 1.3997,-0.16482 5.85416,3.01279 4.70284,0.40719 -2.22196,-5.02862 -5.59049,-9.80135 -6.34718,-15.26791 -0.65429,-4.72685 -0.52842,-9.50972 -1.60309,-14.21267 -1.09817,-4.80577 -0.90076,-10.43202 -3.96868,-14.27214 -2.491,-3.11798 -6.97669,-2.63636 -10.45374,-1.87102 -6.77382,1.491 -12.86628,5.39068 -20.08638,5.41577 -12.45861,0.0433 -24.10306,5.65899 -36.37677,7.11289 -2.51226,0.29759 -7.59851,-0.72167 -7.40219,2.85827 0.17071,3.11309 3.54351,4.23325 5.80299,5.61895 3.2387,1.98623 7.03986,3.96103 8.52696,7.54368 1.20321,2.8987 -2.7701,6.48787 -0.19445,8.7066 0.19996,0.17224 0.49049,0.0957 0.72236,0.11851 z"
       id="path9-2"
       inkscape:linked-fill="path11"
       sodipodi:nodetypes="csssssssssssssssssssssssssc"
       inkscape:path-effect="#path-effect13-1"
       inkscape:original-d="m 862.17109,751.7771 c -4.81296,9.11328 2.49017,1.33617 11.13016,5.65616 1.27945,0.63973 3.27991,-1.01148 4.29141,0 0.71523,0.71524 -1.43047,1.43047 -2.14571,2.14571 -0.59256,0.59256 -0.086,10.55656 0,10.72851 0.31985,0.63974 1.43047,0 2.14571,0 2.1457,0 4.51792,0.95959 6.4371,0 1.27945,-0.63971 -1.0115,-3.2799 0,-4.29141 0.50576,-0.50575 1.63997,0.50576 2.1457,0 0.50575,-0.50575 -0.50573,-1.63994 0,-2.14569 3.94684,-3.94684 10.76071,3.58691 12.87422,4.29141 2.64486,0.88162 3.96603,-1.6515 6.4371,-2.14572 2.29548,-0.45907 10.25285,1.3107 12.87423,0 1.12488,-0.56242 8.09088,-7.31631 10.72851,-6.4371 3.50803,1.16933 8.58282,5.60658 8.58282,4.29141 0,-0.71525 -1.74895,0.5951 -2.14569,0 -2.54019,-3.81026 -7.01963,-15.40335 -8.58282,-19.31133 -0.7969,-1.99223 0.42079,-4.33308 0,-6.43712 -1.14654,-5.73273 -3.54454,-20.71018 -6.4371,-23.60274 -0.75684,-0.75682 -9.10556,-0.54097 -10.72854,0 -3.654,1.21801 -7.02505,3.23329 -10.72851,4.29141 -5.38604,1.53887 -15.5067,0.95565 -21.45702,2.14572 -8.58123,1.71624 -17.16722,4.72085 -25.74845,6.4371 -1.40269,0.28053 -3.01197,-0.63971 -4.29141,0 -5.23277,2.61638 11.73176,11.73175 12.87423,12.87422 0.50575,0.50576 -0.70805,2.24685 0,2.1457 5.15464,-0.73637 -3.26258,10.79423 1.74406,9.36376 z"
       transform="matrix(1.0864422,0,0,1.0983285,-50.522988,-325.14866)" />
    <path
       style="fill:#aa4400;fill-rule:nonzero;stroke:#800000;stroke-width:0.177507"
       d="m 862.17109,751.7771 c -2.26498,2.28789 0.91432,5.67844 3.7317,5.11718 2.72794,-0.54344 6.01149,-1.60769 8.32801,0.30009 2.29848,1.89292 1.29316,5.17211 0.55038,7.67244 -1.16829,3.93269 4.14867,8.05511 7.47374,5.34477 2.4749,-2.01734 2.50131,-6.21726 5.9365,-7.25672 3.40995,-1.03183 5.83832,2.29875 8.4048,3.94546 2.86408,1.83765 6.17665,0.1221 9.17157,-0.68239 4.02595,-1.08144 8.12381,1.25604 12.18156,-0.19695 4.03796,-1.4459 6.30821,-5.86142 10.89907,-6.402 1.3997,-0.16482 5.85416,3.01279 4.70284,0.40719 -2.22196,-5.02862 -5.59049,-9.80135 -6.34718,-15.26791 -0.65429,-4.72685 -0.52842,-9.50972 -1.60309,-14.21267 -1.09817,-4.80577 -0.90076,-10.43202 -3.96868,-14.27214 -2.491,-3.11798 -6.97669,-2.63636 -10.45374,-1.87102 -6.77382,1.491 -12.86628,5.39068 -20.08638,5.41577 -12.45861,0.0433 -24.10306,5.65899 -36.37677,7.11289 -2.51226,0.29759 -7.59851,-0.72167 -7.40219,2.85827 0.17071,3.11309 3.54351,4.23325 5.80299,5.61895 3.2387,1.98623 7.03986,3.96103 8.52696,7.54368 1.20321,2.8987 -2.7701,6.48787 -0.19445,8.7066 0.19996,0.17224 0.49049,0.0957 0.72236,0.11851 z"
       id="path9-3"
       inkscape:linked-fill="path11"
       sodipodi:nodetypes="csssssssssssssssssssssssssc"
       inkscape:path-effect="#path-effect13-14"
       inkscape:original-d="m 862.17109,751.7771 c -4.81296,9.11328 2.49017,1.33617 11.13016,5.65616 1.27945,0.63973 3.27991,-1.01148 4.29141,0 0.71523,0.71524 -1.43047,1.43047 -2.14571,2.14571 -0.59256,0.59256 -0.086,10.55656 0,10.72851 0.31985,0.63974 1.43047,0 2.14571,0 2.1457,0 4.51792,0.95959 6.4371,0 1.27945,-0.63971 -1.0115,-3.2799 0,-4.29141 0.50576,-0.50575 1.63997,0.50576 2.1457,0 0.50575,-0.50575 -0.50573,-1.63994 0,-2.14569 3.94684,-3.94684 10.76071,3.58691 12.87422,4.29141 2.64486,0.88162 3.96603,-1.6515 6.4371,-2.14572 2.29548,-0.45907 10.25285,1.3107 12.87423,0 1.12488,-0.56242 8.09088,-7.31631 10.72851,-6.4371 3.50803,1.16933 8.58282,5.60658 8.58282,4.29141 0,-0.71525 -1.74895,0.5951 -2.14569,0 -2.54019,-3.81026 -7.01963,-15.40335 -8.58282,-19.31133 -0.7969,-1.99223 0.42079,-4.33308 0,-6.43712 -1.14654,-5.73273 -3.54454,-20.71018 -6.4371,-23.60274 -0.75684,-0.75682 -9.10556,-0.54097 -10.72854,0 -3.654,1.21801 -7.02505,3.23329 -10.72851,4.29141 -5.38604,1.53887 -15.5067,0.95565 -21.45702,2.14572 -8.58123,1.71624 -17.16722,4.72085 -25.74845,6.4371 -1.40269,0.28053 -3.01197,-0.63971 -4.29141,0 -5.23277,2.61638 11.73176,11.73175 12.87423,12.87422 0.50575,0.50576 -0.70805,2.24685 0,2.1457 5.15464,-0.73637 -3.26258,10.79423 1.74406,9.36376 z"
       transform="matrix(1.0864422,0,0,1.0983285,-31.822682,-374.71884)" />
    <path
       style="fill:#aa4400;fill-rule:nonzero;stroke:#800000;stroke-width:0.177507"
       d="m 862.17109,751.7771 c -2.26498,2.28789 0.91432,5.67844 3.7317,5.11718 2.72794,-0.54344 6.01149,-1.60769 8.32801,0.30009 2.29848,1.89292 1.29316,5.17211 0.55038,7.67244 -1.16829,3.93269 4.14867,8.05511 7.47374,5.34477 2.4749,-2.01734 2.50131,-6.21726 5.9365,-7.25672 3.40995,-1.03183 5.83832,2.29875 8.4048,3.94546 2.86408,1.83765 6.17665,0.1221 9.17157,-0.68239 4.02595,-1.08144 8.12381,1.25604 12.18156,-0.19695 4.03796,-1.4459 6.30821,-5.86142 10.89907,-6.402 1.3997,-0.16482 5.85416,3.01279 4.70284,0.40719 -2.22196,-5.02862 -5.59049,-9.80135 -6.34718,-15.26791 -0.65429,-4.72685 -0.52842,-9.50972 -1.60309,-14.21267 -1.09817,-4.80577 -0.90076,-10.43202 -3.96868,-14.27214 -2.491,-3.11798 -6.97669,-2.63636 -10.45374,-1.87102 -6.77382,1.491 -12.86628,5.39068 -20.08638,5.41577 -12.45861,0.0433 -24.10306,5.65899 -36.37677,7.11289 -2.51226,0.29759 -7.59851,-0.72167 -7.40219,2.85827 0.17071,3.11309 3.54351,4.23325 5.80299,5.61895 3.2387,1.98623 7.03986,3.96103 8.52696,7.54368 1.20321,2.8987 -2.7701,6.48787 -0.19445,8.7066 0.19996,0.17224 0.49049,0.0957 0.72236,0.11851 z"
       id="path9-5"
       inkscape:linked-fill="path11"
       sodipodi:nodetypes="csssssssssssssssssssssssssc"
       inkscape:path-effect="#path-effect13-16"
       inkscape:original-d="m 862.17109,751.7771 c -4.81296,9.11328 2.49017,1.33617 11.13016,5.65616 1.27945,0.63973 3.27991,-1.01148 4.29141,0 0.71523,0.71524 -1.43047,1.43047 -2.14571,2.14571 -0.59256,0.59256 -0.086,10.55656 0,10.72851 0.31985,0.63974 1.43047,0 2.14571,0 2.1457,0 4.51792,0.95959 6.4371,0 1.27945,-0.63971 -1.0115,-3.2799 0,-4.29141 0.50576,-0.50575 1.63997,0.50576 2.1457,0 0.50575,-0.50575 -0.50573,-1.63994 0,-2.14569 3.94684,-3.94684 10.76071,3.58691 12.87422,4.29141 2.64486,0.88162 3.96603,-1.6515 6.4371,-2.14572 2.29548,-0.45907 10.25285,1.3107 12.87423,0 1.12488,-0.56242 8.09088,-7.31631 10.72851,-6.4371 3.50803,1.16933 8.58282,5.60658 8.58282,4.29141 0,-0.71525 -1.74895,0.5951 -2.14569,0 -2.54019,-3.81026 -7.01963,-15.40335 -8.58282,-19.31133 -0.7969,-1.99223 0.42079,-4.33308 0,-6.43712 -1.14654,-5.73273 -3.54454,-20.71018 -6.4371,-23.60274 -0.75684,-0.75682 -9.10556,-0.54097 -10.72854,0 -3.654,1.21801 -7.02505,3.23329 -10.72851,4.29141 -5.38604,1.53887 -15.5067,0.95565 -21.45702,2.14572 -8.58123,1.71624 -17.16722,4.72085 -25.74845,6.4371 -1.40269,0.28053 -3.01197,-0.63971 -4.29141,0 -5.23277,2.61638 11.73176,11.73175 12.87423,12.87422 0.50575,0.50576 -0.70805,2.24685 0,2.1457 5.15464,-0.73637 -3.26258,10.79423 1.74406,9.36376 z"
       transform="matrix(1.0864422,0,0,1.0983285,125.4201,-328.82361)" />
    <path
       style="fill:#aa4400;fill-rule:nonzero;stroke:#800000;stroke-width:0.177507"
       d="m 862.17109,751.7771 c -2.26498,2.28789 0.91432,5.67844 3.7317,5.11718 2.72794,-0.54344 6.01149,-1.60769 8.32801,0.30009 2.29848,1.89292 1.29316,5.17211 0.55038,7.67244 -1.16829,3.93269 4.14867,8.05511 7.47374,5.34477 2.4749,-2.01734 2.50131,-6.21726 5.9365,-7.25672 3.40995,-1.03183 5.83832,2.29875 8.4048,3.94546 2.86408,1.83765 6.17665,0.1221 9.17157,-0.68239 4.02595,-1.08144 8.12381,1.25604 12.18156,-0.19695 4.03796,-1.4459 6.30821,-5.86142 10.89907,-6.402 1.3997,-0.16482 5.85416,3.01279 4.70284,0.40719 -2.22196,-5.02862 -5.59049,-9.80135 -6.34718,-15.26791 -0.65429,-4.72685 -0.52842,-9.50972 -1.60309,-14.21267 -1.09817,-4.80577 -0.90076,-10.43202 -3.96868,-14.27214 -2.491,-3.11798 -6.97669,-2.63636 -10.45374,-1.87102 -6.77382,1.491 -12.86628,5.39068 -20.08638,5.41577 -12.45861,0.0433 -24.10306,5.65899 -36.37677,7.11289 -2.51226,0.29759 -7.59851,-0.72167 -7.40219,2.85827 0.17071,3.11309 3.54351,4.23325 5.80299,5.61895 3.2387,1.98623 7.03986,3.96103 8.52696,7.54368 1.20321,2.8987 -2.7701,6.48787 -0.19445,8.7066 0.19996,0.17224 0.49049,0.0957 0.72236,0.11851 z"
       id="path9-27"
       inkscape:linked-fill="path11"
       sodipodi:nodetypes="csssssssssssssssssssssssssc"
       inkscape:path-effect="#path-effect13-18"
       inkscape:original-d="m 862.17109,751.7771 c -4.81296,9.11328 2.49017,1.33617 11.13016,5.65616 1.27945,0.63973 3.27991,-1.01148 4.29141,0 0.71523,0.71524 -1.43047,1.43047 -2.14571,2.14571 -0.59256,0.59256 -0.086,10.55656 0,10.72851 0.31985,0.63974 1.43047,0 2.14571,0 2.1457,0 4.51792,0.95959 6.4371,0 1.27945,-0.63971 -1.0115,-3.2799 0,-4.29141 0.50576,-0.50575 1.63997,0.50576 2.1457,0 0.50575,-0.50575 -0.50573,-1.63994 0,-2.14569 3.94684,-3.94684 10.76071,3.58691 12.87422,4.29141 2.64486,0.88162 3.96603,-1.6515 6.4371,-2.14572 2.29548,-0.45907 10.25285,1.3107 12.87423,0 1.12488,-0.56242 8.09088,-7.31631 10.72851,-6.4371 3.50803,1.16933 8.58282,5.60658 8.58282,4.29141 0,-0.71525 -1.74895,0.5951 -2.14569,0 -2.54019,-3.81026 -7.01963,-15.40335 -8.58282,-19.31133 -0.7969,-1.99223 0.42079,-4.33308 0,-6.43712 -1.14654,-5.73273 -3.54454,-20.71018 -6.4371,-23.60274 -0.75684,-0.75682 -9.10556,-0.54097 -10.72854,0 -3.654,1.21801 -7.02505,3.23329 -10.72851,4.29141 -5.38604,1.53887 -15.5067,0.95565 -21.45702,2.14572 -8.58123,1.71624 -17.16722,4.72085 -25.74845,6.4371 -1.40269,0.28053 -3.01197,-0.63971 -4.29141,0 -5.23277,2.61638 11.73176,11.73175 12.87423,12.87422 0.50575,0.50576 -0.70805,2.24685 0,2.1457 5.15464,-0.73637 -3.26258,10.79423 1.74406,9.36376 z"
       transform="matrix(1.0864422,0,0,1.0983285,125.4201,-328.82361)" />
    <path
       style="fill:#aa4400;fill-rule:nonzero;stroke:#800000;stroke-width:0.177507"
       d="m 862.17109,751.7771 c -2.26498,2.28789 0.91432,5.67844 3.7317,5.11718 2.72794,-0.54344 6.01149,-1.60769 8.32801,0.30009 2.29848,1.89292 1.29316,5.17211 0.55038,7.67244 -1.16829,3.93269 4.14867,8.05511 7.47374,5.34477 2.4749,-2.01734 2.50131,-6.21726 5.9365,-7.25672 3.40995,-1.03183 5.83832,2.29875 8.4048,3.94546 2.86408,1.83765 6.17665,0.1221 9.17157,-0.68239 4.02595,-1.08144 8.12381,1.25604 12.18156,-0.19695 4.03796,-1.4459 6.30821,-5.86142 10.89907,-6.402 1.3997,-0.16482 5.85416,3.01279 4.70284,0.40719 -2.22196,-5.02862 -5.59049,-9.80135 -6.34718,-15.26791 -0.65429,-4.72685 -0.52842,-9.50972 -1.60309,-14.21267 -1.09817,-4.80577 -0.90076,-10.43202 -3.96868,-14.27214 -2.491,-3.11798 -6.97669,-2.63636 -10.45374,-1.87102 -6.77382,1.491 -12.86628,5.39068 -20.08638,5.41577 -12.45861,0.0433 -24.10306,5.65899 -36.37677,7.11289 -2.51226,0.29759 -7.59851,-0.72167 -7.40219,2.85827 0.17071,3.11309 3.54351,4.23325 5.80299,5.61895 3.2387,1.98623 7.03986,3.96103 8.52696,7.54368 1.20321,2.8987 -2.7701,6.48787 -0.19445,8.7066 0.19996,0.17224 0.49049,0.0957 0.72236,0.11851 z"
       id="path9-23"
       inkscape:linked-fill="path11"
       sodipodi:nodetypes="csssssssssssssssssssssssssc"
       inkscape:path-effect="#path-effect13-43"
       inkscape:original-d="m 862.17109,751.7771 c -4.81296,9.11328 2.49017,1.33617 11.13016,5.65616 1.27945,0.63973 3.27991,-1.01148 4.29141,0 0.71523,0.71524 -1.43047,1.43047 -2.14571,2.14571 -0.59256,0.59256 -0.086,10.55656 0,10.72851 0.31985,0.63974 1.43047,0 2.14571,0 2.1457,0 4.51792,0.95959 6.4371,0 1.27945,-0.63971 -1.0115,-3.2799 0,-4.29141 0.50576,-0.50575 1.63997,0.50576 2.1457,0 0.50575,-0.50575 -0.50573,-1.63994 0,-2.14569 3.94684,-3.94684 10.76071,3.58691 12.87422,4.29141 2.64486,0.88162 3.96603,-1.6515 6.4371,-2.14572 2.29548,-0.45907 10.25285,1.3107 12.87423,0 1.12488,-0.56242 8.09088,-7.31631 10.72851,-6.4371 3.50803,1.16933 8.58282,5.60658 8.58282,4.29141 0,-0.71525 -1.74895,0.5951 -2.14569,0 -2.54019,-3.81026 -7.01963,-15.40335 -8.58282,-19.31133 -0.7969,-1.99223 0.42079,-4.33308 0,-6.43712 -1.14654,-5.73273 -3.54454,-20.71018 -6.4371,-23.60274 -0.75684,-0.75682 -9.10556,-0.54097 -10.72854,0 -3.654,1.21801 -7.02505,3.23329 -10.72851,4.29141 -5.38604,1.53887 -15.5067,0.95565 -21.45702,2.14572 -8.58123,1.71624 -17.16722,4.72085 -25.74845,6.4371 -1.40269,0.28053 -3.01197,-0.63971 -4.29141,0 -5.23277,2.61638 11.73176,11.73175 12.87423,12.87422 0.50575,0.50576 -0.70805,2.24685 0,2.1457 5.15464,-0.73637 -3.26258,10.79423 1.74406,9.36376 z"
       transform="matrix(1.0864422,0,0,1.0983285,174.23652,-367.54955)" />
    <path
       style="fill:#aa4400;fill-rule:nonzero;stroke:#800000;stroke-width:0.177507"
       d="m 862.17109,751.7771 c -2.26498,2.28789 0.91432,5.67844 3.7317,5.11718 2.72794,-0.54344 6.01149,-1.60769 8.32801,0.30009 2.29848,1.89292 1.29316,5.17211 0.55038,7.67244 -1.16829,3.93269 4.14867,8.05511 7.47374,5.34477 2.4749,-2.01734 2.50131,-6.21726 5.9365,-7.25672 3.40995,-1.03183 5.83832,2.29875 8.4048,3.94546 2.86408,1.83765 6.17665,0.1221 9.17157,-0.68239 4.02595,-1.08144 8.12381,1.25604 12.18156,-0.19695 4.03796,-1.4459 6.30821,-5.86142 10.89907,-6.402 1.3997,-0.16482 5.85416,3.01279 4.70284,0.40719 -2.22196,-5.02862 -5.59049,-9.80135 -6.34718,-15.26791 -0.65429,-4.72685 -0.52842,-9.50972 -1.60309,-14.21267 -1.09817,-4.80577 -0.90076,-10.43202 -3.96868,-14.27214 -2.491,-3.11798 -6.97669,-2.63636 -10.45374,-1.87102 -6.77382,1.491 -12.86628,5.39068 -20.08638,5.41577 -12.45861,0.0433 -24.10306,5.65899 -36.37677,7.11289 -2.51226,0.29759 -7.59851,-0.72167 -7.40219,2.85827 0.17071,3.11309 3.54351,4.23325 5.80299,5.61895 3.2387,1.98623 7.03986,3.96103 8.52696,7.54368 1.20321,2.8987 -2.7701,6.48787 -0.19445,8.7066 0.19996,0.17224 0.49049,0.0957 0.72236,0.11851 z"
       id="path9-87"
       inkscape:linked-fill="path11"
       sodipodi:nodetypes="csssssssssssssssssssssssssc"
       inkscape:path-effect="#path-effect13-11"
       inkscape:original-d="m 862.17109,751.7771 c -4.81296,9.11328 2.49017,1.33617 11.13016,5.65616 1.27945,0.63973 3.27991,-1.01148 4.29141,0 0.71523,0.71524 -1.43047,1.43047 -2.14571,2.14571 -0.59256,0.59256 -0.086,10.55656 0,10.72851 0.31985,0.63974 1.43047,0 2.14571,0 2.1457,0 4.51792,0.95959 6.4371,0 1.27945,-0.63971 -1.0115,-3.2799 0,-4.29141 0.50576,-0.50575 1.63997,0.50576 2.1457,0 0.50575,-0.50575 -0.50573,-1.63994 0,-2.14569 3.94684,-3.94684 10.76071,3.58691 12.87422,4.29141 2.64486,0.88162 3.96603,-1.6515 6.4371,-2.14572 2.29548,-0.45907 10.25285,1.3107 12.87423,0 1.12488,-0.56242 8.09088,-7.31631 10.72851,-6.4371 3.50803,1.16933 8.58282,5.60658 8.58282,4.29141 0,-0.71525 -1.74895,0.5951 -2.14569,0 -2.54019,-3.81026 -7.01963,-15.40335 -8.58282,-19.31133 -0.7969,-1.99223 0.42079,-4.33308 0,-6.43712 -1.14654,-5.73273 -3.54454,-20.71018 -6.4371,-23.60274 -0.75684,-0.75682 -9.10556,-0.54097 -10.72854,0 -3.654,1.21801 -7.02505,3.23329 -10.72851,4.29141 -5.38604,1.53887 -15.5067,0.95565 -21.45702,2.14572 -8.58123,1.71624 -17.16722,4.72085 -25.74845,6.4371 -1.40269,0.28053 -3.01197,-0.63971 -4.29141,0 -5.23277,2.61638 11.73176,11.73175 12.87423,12.87422 0.50575,0.50576 -0.70805,2.24685 0,2.1457 5.15464,-0.73637 -3.26258,10.79423 1.74406,9.36376 z"
       transform="matrix(1.0864422,0,0,1.0983285,82.139019,-375.79789)" />
    <path
       style="fill:#aa4400;fill-rule:nonzero;stroke:#800000;stroke-width:0.177507"
       d="m 862.17109,751.7771 c -2.26498,2.28789 0.91432,5.67844 3.7317,5.11718 2.72794,-0.54344 6.01149,-1.60769 8.32801,0.30009 2.29848,1.89292 1.29316,5.17211 0.55038,7.67244 -1.16829,3.93269 4.14867,8.05511 7.47374,5.34477 2.4749,-2.01734 2.50131,-6.21726 5.9365,-7.25672 3.40995,-1.03183 5.83832,2.29875 8.4048,3.94546 2.86408,1.83765 6.17665,0.1221 9.17157,-0.68239 4.02595,-1.08144 8.12381,1.25604 12.18156,-0.19695 4.03796,-1.4459 6.30821,-5.86142 10.89907,-6.402 1.3997,-0.16482 5.85416,3.01279 4.70284,0.40719 -2.22196,-5.02862 -5.59049,-9.80135 -6.34718,-15.26791 -0.65429,-4.72685 -0.52842,-9.50972 -1.60309,-14.21267 -1.09817,-4.80577 -0.90076,-10.43202 -3.96868,-14.27214 -2.491,-3.11798 -6.97669,-2.63636 -10.45374,-1.87102 -6.77382,1.491 -12.86628,5.39068 -20.08638,5.41577 -12.45861,0.0433 -24.10306,5.65899 -36.37677,7.11289 -2.51226,0.29759 -7.59851,-0.72167 -7.40219,2.85827 0.17071,3.11309 3.54351,4.23325 5.80299,5.61895 3.2387,1.98623 7.03986,3.96103 8.52696,7.54368 1.20321,2.8987 -2.7701,6.48787 -0.19445,8.7066 0.19996,0.17224 0.49049,0.0957 0.72236,0.11851 z"
       id="path9-8"
       inkscape:linked-fill="path11"
       sodipodi:nodetypes="csssssssssssssssssssssssssc"
       inkscape:path-effect="#path-effect13-4"
       inkscape:original-d="m 862.17109,751.7771 c -4.81296,9.11328 2.49017,1.33617 11.13016,5.65616 1.27945,0.63973 3.27991,-1.01148 4.29141,0 0.71523,0.71524 -1.43047,1.43047 -2.14571,2.14571 -0.59256,0.59256 -0.086,10.55656 0,10.72851 0.31985,0.63974 1.43047,0 2.14571,0 2.1457,0 4.51792,0.95959 6.4371,0 1.27945,-0.63971 -1.0115,-3.2799 0,-4.29141 0.50576,-0.50575 1.63997,0.50576 2.1457,0 0.50575,-0.50575 -0.50573,-1.63994 0,-2.14569 3.94684,-3.94684 10.76071,3.58691 12.87422,4.29141 2.64486,0.88162 3.96603,-1.6515 6.4371,-2.14572 2.29548,-0.45907 10.25285,1.3107 12.87423,0 1.12488,-0.56242 8.09088,-7.31631 10.72851,-6.4371 3.50803,1.16933 8.58282,5.60658 8.58282,4.29141 0,-0.71525 -1.74895,0.5951 -2.14569,0 -2.54019,-3.81026 -7.01963,-15.40335 -8.58282,-19.31133 -0.7969,-1.99223 0.42079,-4.33308 0,-6.43712 -1.14654,-5.73273 -3.54454,-20.71018 -6.4371,-23.60274 -0.75684,-0.75682 -9.10556,-0.54097 -10.72854,0 -3.654,1.21801 -7.02505,3.23329 -10.72851,4.29141 -5.38604,1.53887 -15.5067,0.95565 -21.45702,2.14572 -8.58123,1.71624 -17.16722,4.72085 -25.74845,6.4371 -1.40269,0.28053 -3.01197,-0.63971 -4.29141,0 -5.23277,2.61638 11.73176,11.73175 12.87423,12.87422 0.50575,0.50576 -0.70805,2.24685 0,2.1457 5.15464,-0.73637 -3.26258,10.79423 1.74406,9.36376 z"
       transform="matrix(1.0864422,0,0,1.0983285,-96.18964,-375.75005)" />
    <path
       style="fill:#5a3621;fill-opacity:1;fill-rule:nonzero;stroke:#5a3621;stroke-width:0.177507"
       d="m 684.47936,841.11569 c 3.30418,46.41194 15.15375,92.14497 35.647,134.25963 19.47924,40.03078 51.59173,72.10788 86.63079,99.51938 14.71204,11.5095 30.66623,26.2751 50.48698,24.8262 10.65781,-0.7792 15.45161,-14.8656 7.39162,-22.9934 -9.17595,-9.2532 -20.77519,-15.2791 -30.25009,-24.4096 C 806.42131,1025.37 780.49967,995.80116 760.58422,962.65179 740.49718,929.21682 742.00781,887.45903 725.6613,852.784 c -5.32783,-11.30166 -19.10492,-14.46088 -31.02046,-13.03588 -3.39385,0.40587 -6.76618,0.973 -10.16148,1.36757 z"
       id="path27"
       sodipodi:nodetypes="ccccccccccccsccccc"
       inkscape:linked-fill="path36"
       inkscape:path-effect="#path-effect37"
       inkscape:original-d="m 684.47936,841.11569 3.21855,24.13918 2.1457,26.82129 14.48349,48.27831 30.57628,64.37113 37.01339,42.9141 43.98691,34.3312 24.67558,17.1657 c 0,0 -9.18397,2.3684 24.13917,-2.46 22,-6.069 -2.14571,-20.0699 -2.14571,-20.0699 l -40.23193,-34.8677 -35.40411,-45.59625 c 0,0 -26.78092,-25.35094 -36.51506,-54.27103 -11.93419,-35.45645 -17.11174,-51.05249 -17.11174,-51.05249 l -4.30719,-30.92863 -10.19207,-18.23847 -16.62922,-2.14572 z"
       transform="matrix(1.0864422,0,0,1.0983285,-110.65856,-372.29247)" />
    <path
       style="fill:#5f3822;fill-opacity:1;stroke-width:0.177507"
       d="m 872.49661,1105.0372 c 12.72853,-0.5213 25.44844,-1.7657 38.18509,-1.6001 19.72458,0.2565 39.44738,0.7458 59.17336,0.8104 37.34344,0.1223 74.68684,0.1457 112.03054,0.2533 10.3243,0.03 20.758,-1.3994 30.9761,0.044 8.1204,1.1475 21.9491,-4.3959 24.361,3.4424 0.7153,2.3245 0.2543,5.4448 2.1458,6.9735 2.5116,2.0298 -3.036,2.597 -4.4837,2.7695 -12.6571,1.5083 -25.4352,1.1958 -38.157,1.4398 -10.7767,0.2068 -21.6721,-1.1057 -32.3352,0.4915 -7.429,1.1127 -14.9695,0.8699 -22.4595,0.872 -23.878,0.01 -47.75126,-0.4298 -71.62938,-0.5416 -21.22388,-0.099 -42.46669,0.5941 -63.67269,-0.2542 -10.75231,-0.4301 -23.99014,5.5986 -32.25694,-1.2903 -3.21856,-2.6821 -13.1046,-5.6677 -9.65567,-8.0463 2.59273,-1.7881 5.18546,-3.5762 7.77819,-5.3643 z"
       id="path28"
       sodipodi:nodetypes="cccccccssscccc"
       inkscape:path-effect="#path-effect38"
       inkscape:original-d="m 872.49661,1105.0372 37.54981,-1.6093 55.52008,0.8047 77.2453,0.2681 69.7354,10e-5 24.6755,3.4868 2.1458,6.9735 c 0,0 8.5827,3.4867 -27.3578,4.0231 -35.9405,0.5365 -44.7915,10e-5 -50.6922,1.0729 -5.9007,1.0729 -65.98039,10e-5 -69.19894,10e-5 -3.21855,0 -84.21885,-0.2683 -84.21885,-0.2683 l -33.52662,-1.3411 -9.65567,-8.0463 z"
       transform="matrix(1.0864422,0,0,1.0983285,-110.65856,-372.29247)" />
    <path
       style="fill:#854921;fill-opacity:1;stroke-width:0.177507"
       d="m 1247.0724,860.12412 11.3793,23.30484 21.2414,17.47862 23.5172,4.36964 16.6897,-3.64137 3.7931,-21.84828 0.7586,-16.02206 5.3103,-19.66345 c 0,0 -29.5862,5.09794 -44.7586,0.72827 -15.1724,-4.36966 -37.931,15.29379 -37.931,15.29379 z"
       id="path29"
       sodipodi:nodetypes="ccccccccsc"
       inkscape:path-effect="#path-effect32;#path-effect33"
       inkscape:original-d="m 1247.1724,859.51722 11.3793,24.27588 21.2414,18.20689 23.5172,4.55171 16.6897,-3.79309 3.7931,-22.75863 0.7586,-16.68964 5.3103,-20.48276 c 0,0 -29.5862,5.31035 -44.7586,0.75861 -15.1724,-4.55173 -37.931,15.93103 -37.931,15.93103 z"
       transform="matrix(1.0864422,0,0,1.0983285,-110.65856,-372.29247)" />
    <text
       xml:space="preserve"
       style="font-size:234.601px;font-family:'Peace Sans';-inkscape-font-specification:'Peace Sans';text-align:start;writing-mode:lr-tb;direction:ltr;text-anchor:start;fill:#575757;fill-opacity:1;stroke-width:0.819751"
       x="616.76654"
       y="1113.5374"
       id="text1"
       transform="scale(1.0082238,0.99184328)"><tspan
         sodipodi:role="line"
         id="tspan1"
         style="fill:#575757;fill-opacity:1;stroke-width:0.819751"
         x="616.76654"
         y="1113.5374">Food</tspan></text>
    <path
       style="fill:#cfcfcf;fill-opacity:0.397849;stroke-width:0.212401"
       d="M 1257.3823,838.96995 V 1210.1767 L 1589.4937,1014.175 Z"
       id="path3" />
    <text
       xml:space="preserve"
       style="font-size:211.667px;font-family:'Peace Sans';-inkscape-font-specification:'Peace Sans';text-align:start;writing-mode:lr-tb;direction:ltr;text-anchor:start;fill:#575757;fill-opacity:1;stroke-width:0.177507"
       x="1255.2366"
       y="1094.3087"
       id="text3"><tspan
         sodipodi:role="line"
         id="tspan3"
         style="font-size:211.667px;stroke-width:0.177507"
         x="1255.2366"
         y="1094.3087">IO</tspan></text>
    <text
       xml:space="preserve"
       style="font-size:211.667px;font-family:'Peace Sans';-inkscape-font-specification:'Peace Sans';text-align:start;writing-mode:lr-tb;direction:ltr;text-anchor:start;fill:#575757;fill-opacity:1;stroke-width:0.177507"
       x="1538.4692"
       y="978.44073"
       id="text4"><tspan
         sodipodi:role="line"
         id="tspan4"
         style="stroke-width:0.177507"
         x="1538.4692"
         y="978.44073" /></text>
  </g>
</svg>
